PathFileType	4	(X/Y/Z)	/Users/itak/Documents/Research/Walk-IL/dataset/trc/00393_00012.trc
DataRate	CameraRate	NumFrames	NumMarkers	Units	OrigDataRate	OrigDataStartFrame	OrigNumFrames
100.000000	100.000000	4	53	mm	100.000000	481	550
Frame#	Time	RPSI			LPSI			L3			STRN			T10			C7			CLAV			LBAK			LSHO			LUPA			LAEL			LAOL			LWTS			LWPS			LFRA			LIFD			LHPS			LHTS			RSHO			RUPA			RAEL			RAOL			RWTS			RWPS			RFRA			RIFD			RHTS			RHPS			RBHD			LFHD			RFHD			LBHD			LHIP			RHIP			RASI			LASI			LKNE			LTHI			LANK			LTIP			LTOE			LMT1			LMT5			LHEE			RKNE			RTHI			RANK			RTIP			RTOE			RMT1			RMT5			RHEE			RBAK			
		X1	Y1	Z1	X2	Y2	Z2	X3	Y3	Z3	X4	Y4	Z4	X5	Y5	Z5	X6	Y6	Z6	X7	Y7	Z7	X8	Y8	Z8	X9	Y9	Z9	X10	Y10	Z10	X11	Y11	Z11	X12	Y12	Z12	X13	Y13	Z13	X14	Y14	Z14	X15	Y15	Z15	X16	Y16	Z16	X17	Y17	Z17	X18	Y18	Z18	X19	Y19	Z19	X20	Y20	Z20	X21	Y21	Z21	X22	Y22	Z22	X23	Y23	Z23	X24	Y24	Z24	X25	Y25	Z25	X26	Y26	Z26	X27	Y27	Z27	X28	Y28	Z28	X29	Y29	Z29	X30	Y30	Z30	X31	Y31	Z31	X32	Y32	Z32	X33	Y33	Z33	X34	Y34	Z34	X35	Y35	Z35	X36	Y36	Z36	X37	Y37	Z37	X38	Y38	Z38	X39	Y39	Z39	X40	Y40	Z40	X41	Y41	Z41	X42	Y42	Z42	X43	Y43	Z43	X44	Y44	Z44	X45	Y45	Z45	X46	Y46	Z46	X47	Y47	Z47	X48	Y48	Z48	X49	Y49	Z49	X50	Y50	Z50	X51	Y51	Z51	X52	Y52	Z52	X53	Y53	Z53	

482	4.81	-1512.934814453125	992.2530517578125	-44.2205924987793	-1526.451171875	985.426025390625	-175.2350463867188	-1516.964111328125	1059.724609375	-107.5319366455078	-1276.469970703125	1215.003540039062	-119.2142333984375	-1526.775512695312	1165.081420898438	-109.9678802490234	-1484.595581054688	1413.1982421875	-117.1449127197266	-1329.508544921875	1334.167114257812	-118.2269821166992	-1502.869995117188	1375.108154296875	-221.7303771972656	-1416.980590820312	1391.120849609375	-275.873291015625	-1439.5322265625	1273.693237304688	-345.090576171875	-1414.856567382812	1078.35791015625	-370.1062622070312	-1469.222412109375	1054.767822265625	-309.4024353027344	-1311.510498046875	867.25927734375	-330.0982055664062	-1364.09814453125	851.009521484375	-389.7268676757812	-1392.892211914062	973.7726440429688	-378.8967895507812	-1307.391845703125	689.4677734375	-327.6729736328125	-1343.1611328125	766.7318115234375	-381.6072692871094	-1287.678833007812	771.7011108398438	-350.7140197753906	-1420.397094726562	1390.928833007812	39.25734329223633	-1428.71435546875	1325.136352539062	99.12308502197266	-1407.91845703125	1064.416381835938	141.3437347412109	-1444.1298828125	1052.10498046875	53.3999137878418	-1277.24462890625	855.1905517578125	95.77979278564453	-1307.452270507812	843.2638549804688	162.0581970214844	-1377.303588867188	1000.489379882812	153.8534393310547	-1268.261108398438	683.4654541015625	95.14237213134766	-1249.668334960938	752.0940551757812	112.5339965820312	-1297.245361328125	752.99658203125	160.4322662353516	-1430.948974609375	1589.240356445312	-15.75937366485596	-1339.121215820312	1620.367553710938	-189.7099761962891	-1312.671508789062	1620.92578125	-70.13883209228516	-1482.041625976562	1584.658935546875	-169.4226226806641	-1448.355590820312	973.174560546875	-294.0228881835938	-1423.363403320312	963.642578125	64.48257446289062	-1294.436401367188	969.6031494140625	0.09027757495641708	-1339.8623046875	966.8219604492188	-253.2970275878906	-1414.563720703125	479.6802978515625	-285.0431823730469	-1418.291381835938	622.9025268554688	-294.1737976074219	-1520.343139648438	44.3558349609375	-251.9616088867188	-1471.735107421875	249.5755004882812	-281.0517272949219	-1309.505493164062	46.56576538085938	-180.92041015625	-1389.51953125	43.79243087768555	-153.566650390625	-1390.78515625	45.54623031616211	-258.711181640625	-1562.045166015625	38.60563278198242	-195.9144744873047	-1410.662841796875	473.6315612792969	31.87398338317871	-1356.110473632812	734.3873901367188	55.05230712890625	-1479.84912109375	56.97964859008789	-9.340902328491211	-1407.676025390625	347.2388000488281	12.29866313934326	-1303.234497070312	44.25064086914062	-76.99646759033203	-1377.545166015625	44.54444122314453	-106.1662750244141	-1392.50537109375	51.67022705078125	-7.855776309967041	-1555.056762695312	42.12170791625977	-58.96697998046875	-1526.057373046875	1267.248657226562	-47.34882354736328	
483	4.82	-1513.919311523438	992.0289916992188	-44.29156494140625	-1527.3896484375	985.153564453125	-175.2794952392578	-1518.06005859375	1059.681762695312	-107.5763626098633	-1277.36962890625	1215.0986328125	-119.1630706787109	-1527.6611328125	1165.053955078125	-110.0931930541992	-1485.606811523438	1413.18408203125	-117.0733032226562	-1330.471801757812	1334.1650390625	-118.2145233154297	-1503.867065429688	1375.051879882812	-221.6505737304688	-1418.037353515625	1391.08056640625	-275.8368835449219	-1440.580078125	1273.634887695312	-345.009521484375	-1415.969604492188	1078.415649414062	-370.2069396972656	-1470.19775390625	1054.702514648438	-309.419189453125	-1312.453247070312	867.3098754882812	-330.2324523925781	-1365.015380859375	851.0274047851562	-389.885498046875	-1393.862426757812	973.7706909179688	-378.9731750488281	-1308.257690429688	689.505615234375	-328.0157470703125	-1344.044677734375	766.7831420898438	-381.8077087402344	-1288.58837890625	771.7293090820312	-351.0787048339844	-1421.380126953125	1390.9140625	39.34296035766602	-1429.679443359375	1325.136352539062	99.23191070556641	-1408.631225585938	1064.459838867188	141.6517333984375	-1445.0068359375	1051.978393554688	53.72138214111328	-1277.511108398438	855.5833129882812	95.76002502441406	-1307.539794921875	843.3881225585938	162.0505676269531	-1377.896118164062	1000.53515625	154.0699462890625	-1268.041015625	683.8038940429688	94.84267425537109	-1249.588500976562	752.51708984375	112.2712097167969	-1297.2080078125	753.1362915039062	160.2503814697266	-1431.896728515625	1589.3251953125	-15.79968738555908	-1340.135986328125	1620.370727539062	-189.7930755615234	-1313.621459960938	1620.9736328125	-70.29558563232422	-1483.157470703125	1584.736572265625	-169.4132995605469	-1449.280883789062	973.0632934570312	-294.0775451660156	-1424.317626953125	963.6002197265625	64.42102813720703	-1295.228881835938	969.7935791015625	0.1414995193481445	-1340.831420898438	966.7057495117188	-253.3468017578125	-1414.943237304688	479.7255554199219	-284.9437255859375	-1418.899658203125	622.8805541992188	-294.0842895507812	-1520.318115234375	44.48199081420898	-251.8546142578125	-1471.921997070312	249.5647735595703	-280.9601745605469	-1309.477294921875	46.50765228271484	-180.8894500732422	-1389.523681640625	43.70658111572266	-153.5104370117188	-1390.733642578125	45.57991409301758	-258.6001586914062	-1562.052978515625	38.62986755371094	-195.8478088378906	-1411.330322265625	473.6555480957031	32.05043792724609	-1356.650512695312	734.4215087890625	54.91878509521484	-1479.930541992188	56.9390754699707	-9.258421897888184	-1408.272216796875	347.2917175292969	12.56623840332031	-1303.205200195312	44.39667510986328	-76.99845886230469	-1377.563598632812	44.60112380981445	-106.1503677368164	-1392.496459960938	51.66920471191406	-7.83815336227417	-1555.057006835938	42.08815383911133	-58.92394256591797	-1527.023803710938	1267.212280273438	-47.29550170898438	
484	4.83	-1514.864013671875	991.8330688476562	-44.32389450073242	-1528.279541015625	984.9241943359375	-175.2908630371094	-1519.120483398438	1059.638671875	-107.5967025756836	-1278.2744140625	1215.19091796875	-119.1235656738281	-1528.552856445312	1165.027221679688	-110.1647491455078	-1486.594360351562	1413.170288085938	-117.0135803222656	-1331.422241210938	1334.1640625	-118.213249206543	-1504.838745117188	1374.997680664062	-221.5810241699219	-1419.06396484375	1391.042724609375	-275.8072509765625	-1441.605102539062	1273.572265625	-344.9226989746094	-1417.113037109375	1078.47119140625	-370.261474609375	-1471.1689453125	1054.636474609375	-309.3572998046875	-1313.344482421875	867.3757934570312	-330.3386840820312	-1365.972045898438	851.0170288085938	-389.9659423828125	-1394.866088867188	973.7476806640625	-378.9911804199219	-1309.07470703125	689.5751953125	-328.3690795898438	-1344.95947265625	766.8340454101562	-381.9743347167969	-1289.449584960938	771.7894287109375	-351.4540405273438	-1422.3544921875	1390.89599609375	39.41911315917969	-1430.64892578125	1325.139038085938	99.31214904785156	-1409.347534179688	1064.491333007812	141.9456176757812	-1445.849731445312	1051.858642578125	54.02365493774414	-1277.858154296875	855.9327392578125	95.78634643554688	-1307.724243164062	843.4829711914062	162.0582427978516	-1378.547241210938	1000.590881347656	154.2844543457031	-1267.975830078125	684.1206665039062	94.70185089111328	-1249.588134765625	752.8953857421875	112.1202545166016	-1297.25830078125	753.30029296875	160.1768341064453	-1432.828369140625	1589.378051757812	-15.80539035797119	-1341.11083984375	1620.408813476562	-189.8245697021484	-1314.538452148438	1621.002685546875	-70.38985443115234	-1484.212524414062	1584.810913085938	-169.3968505859375	-1450.170166015625	972.9827880859375	-294.1031494140625	-1425.22216796875	963.558349609375	64.41234588623047	-1295.9970703125	969.9746704101562	0.2132955491542816	-1341.751586914062	966.6201782226562	-253.3614959716797	-1415.281372070312	479.7709655761719	-284.841552734375	-1419.470458984375	622.8773803710938	-293.9969787597656	-1520.295288085938	44.59487533569336	-251.7600708007812	-1472.091186523438	249.5592651367188	-280.8777770996094	-1309.439575195312	46.45859527587891	-180.8577117919922	-1389.529907226562	43.62538528442383	-153.4590759277344	-1390.693603515625	45.60840606689453	-258.4969787597656	-1562.05859375	38.65185928344727	-195.7912750244141	-1411.951904296875	473.6686706542969	32.25686264038086	-1357.219604492188	734.4969482421875	54.81963729858398	-1479.999755859375	56.88839721679688	-9.175045967102051	-1408.83056640625	347.3390808105469	12.83699607849121	-1303.171630859375	44.53911972045898	-76.99436950683594	-1377.589111328125	44.65915679931641	-106.1312408447266	-1392.489624023438	51.67231750488281	-7.818624019622803	-1555.06494140625	42.05361557006836	-58.88882064819336	-1527.997680664062	1267.1787109375	-47.27081298828125	
485	4.84	-1515.759155273438	991.6853637695312	-44.31664276123047	-1529.120239257812	984.7606811523438	-175.2697906494141	-1520.128295898438	1059.601928710938	-107.5925369262695	-1279.181640625	1215.286987304688	-119.0932006835938	-1529.46044921875	1165.004638671875	-110.1808319091797	-1487.561889648438	1413.15966796875	-116.9684600830078	-1332.360961914062	1334.183471679688	-118.2096633911133	-1505.792114257812	1374.9501953125	-221.5285491943359	-1420.05029296875	1391.01611328125	-275.7787475585938	-1442.59814453125	1273.517578125	-344.8357543945312	-1418.245239257812	1078.513427734375	-370.2559204101562	-1472.124389648438	1054.580688476562	-309.2238159179688	-1314.195434570312	867.4535522460938	-330.4201049804688	-1366.960327148438	850.9889526367188	-389.9739074707031	-1395.889038085938	973.7147216796875	-378.9552001953125	-1309.83056640625	689.6828002929688	-328.6901550292969	-1345.890258789062	766.8869018554688	-382.099853515625	-1290.251342773438	771.8870849609375	-351.7978820800781	-1423.325561523438	1390.883178710938	39.48319244384766	-1431.625610351562	1325.15185546875	99.36186981201172	-1410.07275390625	1064.517578125	142.2005920410156	-1446.654418945312	1051.761962890625	54.28747177124023	-1278.291748046875	856.2321166992188	95.8516845703125	-1308.015625	843.5690307617188	162.0798187255859	-1379.25341796875	1000.661499023438	154.4820251464844	-1268.072875976562	684.4274291992188	94.71898651123047	-1249.700805664062	753.2337036132812	112.0839614868164	-1297.410522460938	753.5028686523438	160.2110443115234	-1433.74853515625	1589.404418945312	-15.77651023864746	-1342.052490234375	1620.484741210938	-189.8072814941406	-1315.436401367188	1621.021240234375	-70.41375732421875	-1485.197265625	1584.871337890625	-169.3670501708984	-1451.014892578125	972.9435424804688	-294.0950317382812	-1426.066528320312	963.5276489257812	64.45940399169922	-1296.75634765625	970.1398315429688	0.299814909696579	-1342.6416015625	966.5770874023438	-253.3462371826172	-1415.581420898438	479.8182373046875	-284.7442626953125	-1419.989624023438	622.896240234375	-293.915283203125	-1520.275268554688	44.68910598754883	-251.6830139160156	-1472.234619140625	249.5575408935547	-280.8097229003906	-1309.394897460938	46.42063903808594	-180.8271331787109	-1389.535888671875	43.55504989624023	-153.4162750244141	-1390.670288085938	45.63007354736328	-258.4088745117188	-1562.061279296875	38.67256927490234	-195.7476501464844	-1412.525756835938	473.66552734375	32.48821258544922	-1357.844970703125	734.6221313476562	54.78311157226562	-1480.046875	56.82368087768555	-9.091910362243652	-1409.329467773438	347.3843688964844	13.09502792358398	-1303.142944335938	44.66821670532227	-76.9810791015625	-1377.620361328125	44.71966934204102	-106.1071166992188	-1392.48388671875	51.67780303955078	-7.795437812805176	-1555.078125	42.01876449584961	-58.85921859741211	-1528.97314453125	1267.151733398438	-47.27032852172852	
